<svg xmlns="http://www.w3.org/2000/svg" viewBox="0 0 256 256" preserveAspectRatio="xMidYMid" fill="#000000" xmlns:v="https://vecta.io/nano"><defs><linearGradient x1="38.2639253%" y1="9.70187867%" x2="58.0044403%" y2="40.2055933%" id="A"><stop stop-color="#db221a" offset="0%"/><stop stop-color="#9e020b" offset="100%"/></linearGradient><linearGradient x1="0%" y1="58.3732219%" x2="59.1268243%" y2="44.5515751%" id="B"><stop stop-color="#87d152" offset="0%"/><stop stop-color="#5ca82c" offset="100%"/></linearGradient><linearGradient x1="55.9868385%" y1="94.2054964%" x2="47.7658214%" y2="50%" id="C"><stop stop-color="#39be90" offset="0%"/><stop stop-color="#2c8a72" offset="100%"/></linearGradient></defs><path d="M25.549 25.331l1.123 4.457 41.545 41.77L110.66 28.89l.344-3.559H25.549" fill="url(#A)"/><path d="M68.131 67.84l-.663 2.595 23.206 96.788 39.524-39.523-59.286-59.511-2.781-.349" fill="#f6b937"/><path d="M185.89 67.59l40.422-40.572 4.357-1.251v84.192l-3.458-.449-41.321-41.92" fill="#ffd500"/><path d="M136.189 0l94.48 25.767-42.29 41.854-8.907 4.805-80.85 20.639-7.142-1.868L68.131 67.84 136.189 0z" fill="#fff67d"/><path d="M188.379 67.621l-3.387 1.616-21.259 20.66.48 1.89-.63 2.751 22.457 89.828 1.902 3.139.194 2.25 39.524 39.374 2.936 1.031L256 135.388l-67.621-67.767" fill="#5acda5"/><path d="M25.913 145.433v84.872l5.026-1.101 41.32-41.917-43.341-40.948-3.005-.906" fill="url(#B)"/><path d="M25.913 230.305l42.436-43.018 3.91-1.986 92.297-22.906 23.386 25.11-1.041 2.4-37.391 38.738-3.504 1.436-25.03 25.411-95.063-25.185" fill="#afe682"/><path d="M164.213 91.787l-3.362 1.891-32.113 31.551-.629 2.662 59.833 59.614-23.729-95.718" fill="#7dd769"/><path d="M188.379 67.621l-60.27 60.27L91.48 91.197l96.899-23.576z" fill="#aadc50"/><path d="M146.088 230.16l41.854-42.655 42.654 42.655h-84.508" fill="url(#C)"/><path d="M0 120.248l68.349 67.039 3.236-1.761 20.773-18.078-.789-3.235L68.131 67.84 25.549 25.331 0 120.248" fill="#dc4b1e"/><path d="M68.349 187.287l59.76-59.396 36.395 36.249-96.155 23.147" fill="#aabe55"/></svg>